<mxfile host="Electron" modified="2023-10-04T11:13:35.570Z" agent="5.0 (Windows NT 10.0; Win64; x64) AppleWebKit/537.36 (KHTML, like Gecko) draw.io/20.3.0 Chrome/104.0.5112.114 Electron/20.1.3 Safari/537.36" etag="TIUzB4la-zRxYLLAkojF" compressed="false" version="20.3.0" type="device">
  <diagram name="PE011A" id="1CP9VX86ncTdAmcYDIcw">
    <mxGraphModel dx="782" dy="531" grid="1" gridSize="2" guides="1" tooltips="1" connect="1" arrows="1" fold="1" page="1" pageScale="1" pageWidth="1169" pageHeight="827" math="0" shadow="0">
      <root>
        <mxCell id="22vkG-h5v2N9dKBLQ-ZE-0" />
        <mxCell id="22vkG-h5v2N9dKBLQ-ZE-135" value="Label" style="" parent="22vkG-h5v2N9dKBLQ-ZE-0" />
        <object label="%LabelLines%&amp;nbsp; &amp;nbsp; &amp;nbsp; &amp;nbsp; &amp;nbsp; &amp;nbsp;%LabelIndex%" placeholders="1" LabelLines="1" LabelIndex="A" id="e2w2Cw-O9r464jtYLGnk-0">
          <mxCell style="rounded=0;whiteSpace=wrap;html=1;fillColor=none;strokeColor=#FF0000;fontColor=#FF0000;fontSize=10;align=left;" parent="22vkG-h5v2N9dKBLQ-ZE-135" vertex="1">
            <mxGeometry x="474" y="528" width="80" height="16" as="geometry" />
          </mxCell>
        </object>
        <object label="Symbol" Width="32" Height="16" UoM="mm" id="22vkG-h5v2N9dKBLQ-ZE-138">
          <mxCell style="" parent="22vkG-h5v2N9dKBLQ-ZE-0" />
        </object>
        <mxCell id="vSFTwady33dE8fg9m2Sb-0" value="" style="rounded=0;whiteSpace=wrap;html=1;fillColor=none;" parent="22vkG-h5v2N9dKBLQ-ZE-138" vertex="1">
          <mxGeometry x="256" y="256" width="512" height="256" as="geometry" />
        </mxCell>
        <mxCell id="vSFTwady33dE8fg9m2Sb-1" value="" style="endArrow=none;html=1;rounded=0;exitX=0;exitY=0.5;exitDx=0;exitDy=0;entryX=1;entryY=0.5;entryDx=0;entryDy=0;" parent="22vkG-h5v2N9dKBLQ-ZE-138" source="vSFTwady33dE8fg9m2Sb-0" target="vSFTwady33dE8fg9m2Sb-0" edge="1">
          <mxGeometry width="50" height="50" relative="1" as="geometry">
            <mxPoint x="558" y="456" as="sourcePoint" />
            <mxPoint x="608" y="406" as="targetPoint" />
          </mxGeometry>
        </mxCell>
        <mxCell id="vSFTwady33dE8fg9m2Sb-2" value="" style="endArrow=none;html=1;rounded=0;entryX=0.156;entryY=0.188;entryDx=0;entryDy=0;entryPerimeter=0;exitX=0.156;exitY=0.813;exitDx=0;exitDy=0;exitPerimeter=0;" parent="22vkG-h5v2N9dKBLQ-ZE-138" edge="1">
          <mxGeometry width="50" height="50" relative="1" as="geometry">
            <mxPoint x="352.87200000000007" y="464.12799999999993" as="sourcePoint" />
            <mxPoint x="352.87200000000007" y="304.12799999999993" as="targetPoint" />
          </mxGeometry>
        </mxCell>
        <mxCell id="vSFTwady33dE8fg9m2Sb-3" value="" style="endArrow=none;html=1;rounded=0;entryX=0.156;entryY=0.188;entryDx=0;entryDy=0;entryPerimeter=0;exitX=0.156;exitY=0.813;exitDx=0;exitDy=0;exitPerimeter=0;" parent="22vkG-h5v2N9dKBLQ-ZE-138" edge="1">
          <mxGeometry width="50" height="50" relative="1" as="geometry">
            <mxPoint x="415.87200000000007" y="464.12799999999993" as="sourcePoint" />
            <mxPoint x="415.87200000000007" y="304.12799999999993" as="targetPoint" />
          </mxGeometry>
        </mxCell>
        <mxCell id="vSFTwady33dE8fg9m2Sb-4" value="" style="endArrow=none;html=1;rounded=0;entryX=0.156;entryY=0.188;entryDx=0;entryDy=0;entryPerimeter=0;exitX=0.156;exitY=0.813;exitDx=0;exitDy=0;exitPerimeter=0;" parent="22vkG-h5v2N9dKBLQ-ZE-138" edge="1">
          <mxGeometry width="50" height="50" relative="1" as="geometry">
            <mxPoint x="481.87200000000007" y="464.12799999999993" as="sourcePoint" />
            <mxPoint x="481.87200000000007" y="304.12799999999993" as="targetPoint" />
          </mxGeometry>
        </mxCell>
        <mxCell id="vSFTwady33dE8fg9m2Sb-5" value="" style="endArrow=none;html=1;rounded=0;entryX=0.156;entryY=0.188;entryDx=0;entryDy=0;entryPerimeter=0;exitX=0.156;exitY=0.813;exitDx=0;exitDy=0;exitPerimeter=0;" parent="22vkG-h5v2N9dKBLQ-ZE-138" edge="1">
          <mxGeometry width="50" height="50" relative="1" as="geometry">
            <mxPoint x="543.8720000000001" y="464.12799999999993" as="sourcePoint" />
            <mxPoint x="543.8720000000001" y="304.12799999999993" as="targetPoint" />
          </mxGeometry>
        </mxCell>
        <mxCell id="vSFTwady33dE8fg9m2Sb-6" value="" style="endArrow=none;html=1;rounded=0;entryX=0.156;entryY=0.188;entryDx=0;entryDy=0;entryPerimeter=0;exitX=0.156;exitY=0.813;exitDx=0;exitDy=0;exitPerimeter=0;" parent="22vkG-h5v2N9dKBLQ-ZE-138" edge="1">
          <mxGeometry width="50" height="50" relative="1" as="geometry">
            <mxPoint x="607.8720000000001" y="464.12799999999993" as="sourcePoint" />
            <mxPoint x="607.8720000000001" y="304.12799999999993" as="targetPoint" />
          </mxGeometry>
        </mxCell>
        <mxCell id="vSFTwady33dE8fg9m2Sb-7" value="" style="endArrow=none;html=1;rounded=0;entryX=0.156;entryY=0.188;entryDx=0;entryDy=0;entryPerimeter=0;exitX=0.156;exitY=0.813;exitDx=0;exitDy=0;exitPerimeter=0;" parent="22vkG-h5v2N9dKBLQ-ZE-138" edge="1">
          <mxGeometry width="50" height="50" relative="1" as="geometry">
            <mxPoint x="671.8720000000001" y="464.12799999999993" as="sourcePoint" />
            <mxPoint x="671.8720000000001" y="304.12799999999993" as="targetPoint" />
          </mxGeometry>
        </mxCell>
        <mxCell id="22vkG-h5v2N9dKBLQ-ZE-124" value="Connection" style="" parent="22vkG-h5v2N9dKBLQ-ZE-0" />
        <object label="Connection" PipingConnector="Y" LabelConnector="N" SignalConnector="N" Direction="0" id="vSFTwady33dE8fg9m2Sb-9">
          <mxCell style="vsdxID=1407;fillColor=none;gradientColor=none;shape=stencil(rVFbDsIgEDwNnyQU4glqvcfGblsilmZBS28vZGMsxg9j/JvZmX1kR5g2TLCg0CpE8hdcbR8nYY5CaztPSDZmJEwnTDt4wpH8be6ZL1CcBV39vUxI3KdKh1YbswPTEzuBzlmiVGmKau9zUKM+jlJJQrJBko8QrZ+rrQ5oRJnXyMHBWElhRVx25ebnw/5zVvPFWRm83jxY5zilvf4eSy5xpKZ7AA==);strokeColor=#00ff00;strokeWidth=1;points=[[0.5,0.5,0,0,0]];labelBackgroundColor=none;rounded=0;html=1;whiteSpace=wrap;aspect=fixed;noLabel=1;snapToPoint=1;container=0;fontSize=16;" parent="22vkG-h5v2N9dKBLQ-ZE-124" vertex="1">
            <mxGeometry x="762" y="378" width="12" height="12" as="geometry" />
          </mxCell>
        </object>
        <object label="Connection" PipingConnector="Y" LabelConnector="N" SignalConnector="N" Direction="180" id="vSFTwady33dE8fg9m2Sb-10">
          <mxCell style="vsdxID=1407;fillColor=none;gradientColor=none;shape=stencil(rVFbDsIgEDwNnyQU4glqvcfGblsilmZBS28vZGMsxg9j/JvZmX1kR5g2TLCg0CpE8hdcbR8nYY5CaztPSDZmJEwnTDt4wpH8be6ZL1CcBV39vUxI3KdKh1YbswPTEzuBzlmiVGmKau9zUKM+jlJJQrJBko8QrZ+rrQ5oRJnXyMHBWElhRVx25ebnw/5zVvPFWRm83jxY5zilvf4eSy5xpKZ7AA==);strokeColor=#00ff00;strokeWidth=1;points=[[0.5,0.5,0,0,0]];labelBackgroundColor=none;rounded=0;html=1;whiteSpace=wrap;aspect=fixed;noLabel=1;snapToPoint=1;container=0;fontSize=16;" parent="22vkG-h5v2N9dKBLQ-ZE-124" vertex="1">
            <mxGeometry x="250" y="378" width="12" height="12" as="geometry" />
          </mxCell>
        </object>
        <mxCell id="22vkG-h5v2N9dKBLQ-ZE-136" value="Origo" style="" parent="22vkG-h5v2N9dKBLQ-ZE-0" />
        <object label="origo" id="vSFTwady33dE8fg9m2Sb-8">
          <mxCell style="vsdxID=1407;fillColor=none;gradientColor=none;shape=stencil(rVFbDsIgEDwNnyQU4glqvcfGblsilmZBS28vZGMsxg9j/JvZmX1kR5g2TLCg0CpE8hdcbR8nYY5CaztPSDZmJEwnTDt4wpH8be6ZL1CcBV39vUxI3KdKh1YbswPTEzuBzlmiVGmKau9zUKM+jlJJQrJBko8QrZ+rrQ5oRJnXyMHBWElhRVx25ebnw/5zVvPFWRm83jxY5zilvf4eSy5xpKZ7AA==);strokeColor=#ff0000;strokeWidth=1;points=[[0.5,0.5,0,0,0]];labelBackgroundColor=none;rounded=0;html=1;whiteSpace=wrap;aspect=fixed;noLabel=1;snapToPoint=1;" parent="22vkG-h5v2N9dKBLQ-ZE-136" vertex="1">
            <mxGeometry x="252" y="380" width="8" height="8" as="geometry" />
          </mxCell>
        </object>
      </root>
    </mxGraphModel>
  </diagram>
</mxfile>
